# xmcd CD database file
#
# Track frame offsets:
#	150
#	14322
#	26730
#	40887
#	53960
#	67832
#	81520
#	94315
#	107562
#	121700
#	135867
#	150850
#	166862
#	180417
#	194187
#	208860
#	220820
#	235417
#	249830
#	262665
#	277150
#
# Disc length: 3871 seconds
#
# Revision: 0
# Processed by: cddbd v1.5.2PL0 Copyright (c) Steve Scherf et al.
# Submitted via: CDex 1.70beta2
#
DISCID=1a0f1d15
DTITLE=RED NICHOLS AND HIS FIVE PENNIES - RED NICHOLS AND HIS FIVE PENNIES
DYEAR=1991
DGENRE=Jazz
TTITLE0=Washboad Blues
TTITLE1=That's No Bargain
TTITLE2=Boneyard Shuffle
TTITLE3=Bugle Call Rag
TTITLE4=Riverboat Shuffle
TTITLE5=Eccentric
TTITLE6=Ida! Sweet As Apple Cider
TTITLE7=Feelin' No Pain
TTITLE8=Nobody's Sweetheart
TTITLE9=Avalon
TTITLE10=Japanese Sandman
TTITLE11=Dear Old Southland
TTITLE12=I Never Knew
TTITLE13=Who's Sorry Now?
TTITLE14=Chinatown, My Chinatown
TTITLE15=Indiana
TTITLE16=Dinah
TTITLE17=After You've gone
TTITLE18=China Boy
TTITLE19=The Sheik Of Araby
TTITLE20=Shim-Me-Sha-Wabble
EXTD=YEAR: 1991
EXTT0=
EXTT1=
EXTT2=
EXTT3=
EXTT4=
EXTT5=
EXTT6=
EXTT7=
EXTT8=
EXTT9=
EXTT10=
EXTT11=
EXTT12=
EXTT13=
EXTT14=
EXTT15=
EXTT16=
EXTT17=
EXTT18=
EXTT19=
EXTT20=
PLAYORDER=
